<?xml version="1.0" encoding="UTF-8"?>
<svg id="base" xmlns="http://www.w3.org/2000/svg" width="312.01" height="37.94" viewBox="0 0 312.01 37.94">
  <defs>
    <style>
      .cls-1 {
        fill: #fff;
      }

      .cls-2 {
        fill: #ffb84e;
      }
    </style>
  </defs>
  <path class="cls-1" d="m7.24,23.59V6.03h1.88v7.73h8.62v-7.73h1.88v17.55h-1.88v-8.25h-8.62v8.25h-1.88Zm19.17,0V6.03h1.88v17.55h-1.88Zm10.52-9.19h4.73c1.17,0,2.07-.31,2.7-.94.64-.62.96-1.45.96-2.48s-.34-1.8-1.01-2.41c-.66-.62-1.6-.94-2.84-.94h-4.55v6.77Zm-1.88,9.19V6.03h6.84c1.72,0,3.04.47,3.96,1.41.92.92,1.38,2.06,1.38,3.42,0,1.23-.31,2.23-.94,3-.62.77-1.31,1.25-2.06,1.45.66.34,1.13.77,1.43,1.27.3.5.54,1.2.73,2.09.2.88.34,1.48.42,1.8.09.31.25.77.47,1.36.23.59.52,1.18.84,1.76h-2.11c-.27-.5-.51-1.03-.73-1.59-.2-.58-.35-1.05-.45-1.41-.09-.38-.23-.97-.42-1.78-.2-.88-.52-1.56-.94-2.06-.41-.5-1.06-.75-1.97-.75h-4.59v7.59h-1.88Zm16.54-8.77c0-2.75.66-4.97,1.99-6.66,1.33-1.7,3.1-2.55,5.32-2.55s4,.84,5.3,2.53c1.31,1.69,1.97,3.92,1.97,6.7s-.66,5.05-1.99,6.7c-1.31,1.64-3.07,2.46-5.27,2.46s-3.99-.83-5.32-2.48c-1.33-1.67-1.99-3.91-1.99-6.7Zm1.92,0c0,2.31.48,4.16,1.45,5.53.97,1.36,2.28,2.04,3.94,2.04s2.92-.67,3.89-2.02c.97-1.34,1.45-3.19,1.45-5.53s-.47-4.16-1.41-5.55c-.94-1.39-2.25-2.09-3.94-2.09s-2.97.69-3.94,2.06c-.97,1.38-1.45,3.23-1.45,5.55Zm16.73,5.46l1.73-.61c1.05,1.81,2.67,2.72,4.88,2.72,1.22,0,2.21-.3,2.98-.89.77-.59,1.15-1.41,1.15-2.44,0-.52-.11-.97-.33-1.36-.22-.41-.57-.76-1.05-1.05-.47-.3-.91-.53-1.31-.7-.41-.17-.96-.38-1.66-.61-.56-.19-.96-.32-1.2-.4-.23-.08-.61-.22-1.12-.42-.5-.2-.88-.38-1.12-.54-.23-.16-.53-.37-.89-.63-.36-.28-.62-.56-.8-.84-.16-.28-.3-.62-.45-1.01-.12-.41-.19-.84-.19-1.29,0-1.39.53-2.5,1.59-3.33,1.06-.84,2.48-1.27,4.27-1.27,1.36,0,2.54.31,3.54.94,1.02.62,1.74,1.41,2.18,2.34l-1.59.56c-.92-1.5-2.31-2.25-4.17-2.25-1.22,0-2.17.27-2.86.82s-1.03,1.27-1.03,2.18c0,.41.09.79.28,1.15.19.34.39.62.61.84.23.2.6.43,1.1.68.52.23.91.41,1.2.52.3.09.77.25,1.43.47.16.05.27.09.35.12.77.25,1.41.49,1.92.73.52.23,1.05.55,1.59.94.55.39.95.87,1.22,1.43.28.55.42,1.19.42,1.92,0,1.58-.55,2.81-1.66,3.7-1.09.88-2.57,1.31-4.43,1.31-1.59,0-2.95-.34-4.05-1.01-1.11-.67-1.95-1.58-2.51-2.72Zm17.97,3.3V6.03h1.88v7.73h8.62v-7.73h1.88v17.55h-1.88v-8.25h-8.62v8.25h-1.88Zm19.17,0V6.03h1.88v17.55h-1.88Zm8.65,0V6.03h2.44l3.84,9.45c.25.66.59,1.55,1.01,2.7.44,1.12.66,1.71.68,1.76h.09c.09-.23.66-1.72,1.71-4.45l3.82-9.45h2.49v17.55h-1.88v-9.91c0-1.27.08-3.04.23-5.32h-.09l-.89,2.34-4.59,11.58h-1.64l-4.59-11.58-.94-2.34h-.09c.19,2.52.28,4.29.28,5.32v9.91h-1.88Zm24.72-6.56h6.61l-2.06-5.91c-.12-.36-.33-.93-.61-1.71-.27-.8-.45-1.35-.56-1.66h-.14c-.66,1.92-1.04,3.05-1.15,3.38l-2.09,5.91Zm-4.41,6.56l6.56-17.55h2.3l6.56,17.55h-2.06l-1.78-5.06h-7.73l-1.78,5.06h-2.06Zm19.69,0V6.03h1.88v9.28h.05l7.97-9.28h2.48l-6.66,7.59,7.03,9.96h-2.34l-5.91-8.6-2.62,3v5.6h-1.88Zm18.45,0V6.03h10.97v1.59h-9.09v6.09h8.2v1.57h-8.2v6.7h9.28v1.59h-11.16Zm17.77,0V6.03h2.16l6.47,11.2,2.11,3.7h.14c-.19-1.45-.28-3.11-.28-4.97V6.03h1.88v17.55h-2.16l-6.49-11.27-2.09-3.61h-.09c.16,1.56.23,3.21.23,4.95v9.94h-1.88Zm18.3,0V6.03h1.88v9.28h.05l7.97-9.28h2.49l-6.66,7.59,7.03,9.96h-2.34l-5.91-8.6-2.62,3v5.6h-1.88Zm14.95-8.77c0-2.75.66-4.97,1.99-6.66,1.33-1.7,3.1-2.55,5.32-2.55s4,.84,5.3,2.53c1.31,1.69,1.97,3.92,1.97,6.7s-.66,5.05-1.99,6.7c-1.31,1.64-3.07,2.46-5.27,2.46s-3.99-.83-5.32-2.48c-1.33-1.67-1.99-3.91-1.99-6.7Zm1.92,0c0,2.31.48,4.16,1.45,5.53.97,1.36,2.28,2.04,3.94,2.04s2.92-.67,3.89-2.02c.97-1.34,1.45-3.19,1.45-5.53s-.47-4.16-1.41-5.55c-.94-1.39-2.25-2.09-3.94-2.09s-2.97.69-3.94,2.06c-.97,1.38-1.45,3.23-1.45,5.55Zm54.58,0c0-2.75.66-4.97,1.99-6.66,1.33-1.7,3.1-2.55,5.32-2.55s4,.84,5.3,2.53c1.31,1.69,1.97,3.92,1.97,6.7s-.66,5.05-1.99,6.7c-1.31,1.64-3.07,2.46-5.27,2.46s-3.99-.83-5.32-2.48c-1.33-1.67-1.99-3.91-1.99-6.7Zm1.92,0c0,2.31.48,4.16,1.45,5.53.97,1.36,2.28,2.04,3.94,2.04s2.92-.67,3.89-2.02c.97-1.34,1.45-3.19,1.45-5.53s-.47-4.16-1.41-5.55c-.94-1.39-2.25-2.09-3.94-2.09s-2.97.69-3.94,2.06c-.97,1.38-1.45,3.23-1.45,5.55Z"/>
  <path class="cls-2" d="m245.69,18.01v-1.59h11.06v1.59h-11.06Zm0-4.64v-1.59h11.06v1.59h-11.06Zm17.89,10.22V6.03h4.73c2.53,0,4.52.75,5.98,2.25,1.45,1.48,2.18,3.66,2.18,6.54s-.7,4.88-2.11,6.45c-1.41,1.55-3.44,2.32-6.09,2.32h-4.69Zm1.88-1.59h2.53c2.03,0,3.63-.57,4.8-1.71,1.17-1.16,1.76-2.98,1.76-5.46s-.59-4.34-1.76-5.48-2.76-1.71-4.76-1.71h-2.58v14.37Z"/>
  <path class="cls-1" d="m11.38,28.27h.7v7.94h-.7v-7.94Zm-2.14,2.14h5.24v.58h-5.24v-.58Zm.22,4.08h4.83v.58h-4.83v-.58Zm.3-1.37h4.25v.58h-4.25v-.58Zm-2.27-4.1h1.45v.63h-1.45v-.63Zm.38,2.81h1.28v.58h-1.28v-.58Zm.91-2.81h.09l.12-.03.48.13c-.41,1.04-1.09,2.59-1.63,3.76l-.63-.15c.55-1.16,1.24-2.8,1.57-3.62v-.09Zm.17,2.81h.13l.12-.02.4.08c-.24,2.77-.95,4.5-2.19,5.47-.09-.16-.28-.41-.43-.55,1.08-.79,1.77-2.48,1.97-4.86v-.12Zm-1.04,1.39c.54,2.71,1.78,3.31,3.82,3.31.32,0,2.35,0,2.78,0-.11.17-.22.49-.26.69h-2.55c-2.39,0-3.71-.71-4.37-3.81l.58-.18Zm2.01-4.15h3.96v3.29h-3.96v-.59h3.31v-2.12h-3.31v-.58Zm-2.95-.82l.68.19c-.52,1.65-1.35,3.33-2.27,4.44-.07-.17-.26-.58-.38-.77.82-.95,1.54-2.39,1.97-3.86Zm-.71,2.53l.66-.66h.01v7.25h-.67v-6.59Zm32.23,1.08h7.46v.57h-7.46v-.57Zm.71-1.29h5.76v3.19h-5.84v-.55h5.13v-2.09h-5.05v-.55Zm2.34-.71h.73v6.67c0,.47-.12.66-.43.76-.32.11-.86.12-1.68.12-.04-.18-.14-.47-.25-.66.62.02,1.23,0,1.4,0,.18,0,.23-.05.23-.22v-6.67Zm-2.8,4.44l.43-.41c.52.29,1.16.73,1.5,1.03l-.46.46c-.31-.31-.95-.77-1.47-1.08Zm6.1-.36l.55.44c-.6.45-1.38.92-1.99,1.21l-.43-.38c.59-.32,1.4-.87,1.87-1.27Zm-2.41-.38c.53,1.51,1.69,2.66,3.32,3.13-.16.14-.36.41-.46.6-1.68-.57-2.85-1.85-3.44-3.59l.58-.14Zm-4.22,2.83c.68-.22,1.71-.6,2.71-.97l.13.55c-.86.37-1.76.74-2.48,1.03l-.36-.61Zm3.04-8.19h.77v1.27h-.77v-1.27Zm-3.36.92h7.94v.66h-7.94v-.66Zm-.36,0h.71v2.95c0,1.57-.13,3.84-.97,5.36-.13-.13-.44-.33-.61-.4.8-1.45.87-3.49.87-4.96v-2.95Zm32.29,5.98c0-.4.17-.8.5-1.21.34-.41.84-.8,1.51-1.16-.28-1.02-.41-2.22-.4-3.59l.73-.04c0,1.28.11,2.38.35,3.32.91-.4,1.91-.73,2.99-1l.24.64c-.87.19-1.7.44-2.48.76-.78.31-1.43.67-1.94,1.07-.51.4-.77.78-.77,1.15,0,.32.11.56.34.73.23.16.62.24,1.16.24,1.1,0,2.38-.05,3.85-.15l-.13.68c-1.17.08-2.42.13-3.75.13-.76,0-1.32-.12-1.68-.37-.35-.25-.53-.66-.53-1.22Zm30.18-1.48h8.94v.67h-8.94v-.67Zm7.72-2.53l.44.63c-1.84.47-4.85.72-7.31.81-.01-.19-.09-.47-.17-.64,2.45-.11,5.42-.37,7.04-.8Zm-3.56,1.03h.82c-.29,2.37-.95,4.37-4.59,5.26-.07-.18-.26-.47-.41-.62,3.45-.78,3.93-2.6,4.18-4.64Zm.76,1.67c.68,1.49,2.12,2.55,4.03,2.97-.17.16-.38.45-.48.65-1.99-.51-3.45-1.69-4.23-3.43l.68-.19Zm-3.73-4.54h3.21v.65h-3.21v-.65Zm3.88.02h3.82v.65h-3.82v-.65Zm-3.71-1.12l.72.15c-.33,1.19-.93,2.3-1.58,3.03-.15-.12-.48-.31-.66-.4.69-.67,1.23-1.69,1.52-2.78Zm3.88.02l.73.17c-.36,1.15-.97,2.24-1.62,2.95-.14-.12-.46-.31-.65-.41.69-.64,1.24-1.65,1.54-2.71Zm-3.46,1.57l.65-.23c.28.49.58,1.14.68,1.55l-.68.27c-.1-.42-.37-1.1-.65-1.59Zm4.11-.01l.65-.23c.34.44.72,1.05.87,1.44l-.68.27c-.15-.4-.5-1.02-.84-1.48Zm25.69-.5h4.32v.64h-4.32v-.64Zm.41,2.11h3.98v.64h-3.98v-.64Zm2.65-1.47l.7.15c-.17.46-.33.96-.47,1.3l-.62-.14c.14-.37.32-.93.39-1.31Zm-1.23-1.6h.72v1.36h-.72v-1.36Zm1.28,3.88l.58.24c-.56.54-1.45,1-2.24,1.28-.11-.14-.29-.33-.45-.45.75-.23,1.63-.63,2.11-1.07Zm-2.91-.81h.68v2.17c0,1.07-.11,2.59-.7,3.61-.11-.14-.4-.39-.54-.47.51-.93.56-2.19.56-3.15v-2.16Zm.53-1.3l.62-.13c.17.41.34.95.38,1.28l-.65.16c-.04-.34-.18-.89-.35-1.31Zm2.63,3.47l.58.24c-.59.64-1.56,1.21-2.44,1.56-.11-.15-.28-.34-.44-.46.82-.29,1.78-.8,2.3-1.34Zm.32,1.38l.63.22c-.62.97-1.76,1.71-3.06,2.14-.1-.16-.27-.38-.43-.52,1.21-.35,2.31-1.02,2.86-1.84Zm.73-6.23h4.51v.65h-4.51v-.65Zm.98,3.72v.98h2.66v-.98h-2.66Zm0,1.54v.98h2.66v-.98h-2.66Zm0-3.06v.96h2.66v-.96h-2.66Zm-.67-.59h4.02v5.22h-4.02v-5.22Zm1.63-1.29l.79.1c-.16.57-.33,1.19-.49,1.61l-.62-.13c.11-.44.26-1.12.32-1.58Zm-.73,6.67l.66.38c-.51.52-1.36,1.08-2.09,1.39-.11-.15-.34-.36-.5-.49.73-.3,1.55-.83,1.93-1.28Zm1.4.42l.57-.37c.55.37,1.25.91,1.59,1.29l-.58.41c-.33-.37-1.02-.94-1.58-1.33Zm25.61-2.84c.95-.68,1.66-1.46,2.14-2.33l-1.99.16-.09-.69,2.46-.18c.2-.45.37-.92.52-1.42l.73.21c-.14.4-.28.78-.43,1.14l2.55-.2.08.68-2.95.22c-.2.4-.49.84-.87,1.3.34-.18.65-.26.93-.26.25,0,.45.03.62.1.17.07.29.16.37.29.08.12.14.24.17.34.03.1.06.23.08.38.72-.26,1.54-.51,2.48-.76l.21.63c-.96.25-1.85.52-2.67.82v1.66h-.74v-1.34c-1.27.54-1.9,1.08-1.9,1.61s.4.78,1.21.78h3.16v.67h-3.11c-.68,0-1.18-.13-1.51-.39-.33-.25-.5-.6-.5-1.03,0-.86.87-1.65,2.62-2.37,0-.13-.02-.23-.03-.29-.01-.07-.04-.14-.09-.21-.04-.08-.12-.14-.21-.18-.09-.04-.22-.06-.37-.06-.36,0-.72.11-1.08.32-.36.21-.77.53-1.24.94l-.54-.57Zm31.02-1.55c2.15-.78,3.72-1.17,4.73-1.17,1.06,0,1.82.24,2.29.72.47.48.7,1.11.7,1.89,0,.92-.4,1.65-1.19,2.21-.79.55-2.05.84-3.77.88l-.15-.67c1.45-.03,2.53-.26,3.26-.68.74-.42,1.1-1,1.1-1.73,0-1.3-.75-1.94-2.25-1.94-.83,0-2.31.39-4.43,1.17l-.29-.67Zm34.49,3.83c0,.23.07.42.21.57.14.15.36.22.66.22.25,0,.48-.08.66-.25.19-.17.32-.35.39-.55.08-.2.12-.38.14-.57-.38-.12-.74-.19-1.07-.19s-.56.07-.73.22c-.17.14-.25.32-.25.54Zm-.74.02c0-.44.15-.79.46-1.05.31-.27.74-.4,1.27-.4.33,0,.69.05,1.08.16v-2.04h.75v2.26c.62.23,1.23.54,1.83.91l-.35.58c-.52-.32-1.03-.58-1.54-.77-.08.46-.29.87-.6,1.24-.31.37-.73.56-1.24.57-.54,0-.95-.13-1.23-.4-.28-.28-.42-.62-.42-1.04Zm2.77-4.75l.26-.61c.9.29,1.73.61,2.48.94l-.27.61c-.69-.31-1.51-.62-2.47-.94Zm-2.51.33c-.44,1.46-1.03,2.84-1.77,4.15l-.66-.32c.68-1.15,1.24-2.4,1.68-3.77-.6.05-1.11.07-1.54.08l-.09-.67c.7-.01,1.31-.04,1.85-.09.14-.48.28-1.03.42-1.66l.69.16c-.11.5-.23.98-.36,1.43.42-.04.86-.1,1.31-.2l.13.66c-.54.1-1.09.18-1.65.23Zm32.47,5.47c.76-.9,1.14-2.02,1.14-3.36v-1.06c-.83.05-1.65.07-2.48.06l-.03-.68c.8.01,1.64,0,2.51-.06v-2.35h.75v2.29c.78-.07,1.4-.15,1.86-.23l.06.68c-.57.1-1.2.19-1.91.24v1.11c0,1.48-.42,2.73-1.26,3.76l-.63-.4Zm-3.5-3.71c0-.98.12-2.09.37-3.31l.72.15c-.24,1.18-.36,2.23-.36,3.16,0,1.13.09,2.15.28,3.09l-.73.14c-.19-.99-.28-2.06-.28-3.22Zm6.97-4.22l.41-.39c.57.48,1,.91,1.3,1.32l-.42.38c-.38-.47-.81-.9-1.29-1.31Zm-.87.65l.41-.39c.57.48,1,.91,1.3,1.32l-.42.38c-.38-.47-.81-.9-1.29-1.31Zm25.92,5.03c1.01-1.01,2.35-2.54,4.01-4.58l-2.45.36-.18-.7,3.31-.41.49.5-2.43,2.94c.4-.17.91-.25,1.54-.25.87,0,1.56.21,2.06.63.51.42.76,1.01.76,1.77,0,.8-.29,1.41-.86,1.82-.57.41-1.29.62-2.17.62-.67,0-1.22-.14-1.64-.43-.42-.28-.63-.65-.63-1.1,0-.37.13-.68.4-.94.27-.26.6-.39,1.01-.39.94,0,1.47.71,1.61,2.12.41-.09.77-.27,1.08-.55.31-.28.47-.66.47-1.14s-.18-.88-.53-1.22c-.35-.34-.92-.52-1.71-.52-.4,0-.84.06-1.32.18-.47.11-.8.27-1.01.48l-1.28,1.33-.55-.5Zm2.55,1.16c0,.59.55.89,1.64.89-.05-1.04-.38-1.56-.97-1.56-.18,0-.34.07-.48.2-.13.12-.19.28-.19.48Z"/>
</svg>